Patient4_TMGait_0pt7_02_right_09_EMG.mot
version=1
nRows=23
nColumns=33
inDegrees=no
endheader
time	1LAddLong	2LGlutMax	3LGlutMed	4LIliopsoas	5LSemiMemb	6LBicFemLong	7LRecFem	8LVastMed	9LVastLat	10LGasMed	11LTibAnt	12lTibPost	13LPeroneusLong	14LSol	15LExtDigLong	16LFlexDigLong	17RAddLong	18RGlutMax	19RGlutMed	20RIliopsoas	21RSemiMemb	22RBicFemLong	23RRecFem	24RVastMed	25RVastLat	26RGasMed	27RTibAnt	28RTibPost	29RPeroneusLong	30RSol	31RExtDigLong	32RFlexDigLong
9.36	0.004578	-0.14206	0.000763	0.017242	-0.031891	0.16861	-0.001831	-0.022736	0.15335	-0.085754	0.028534	0.002899	0.36179	-0.13458	-0.26184	-0.011749	0.057983	-0.32105	-0.074005	0.07309	0.042267	0.007782	-0.007629	-0.19089	-0.005798	-0.002441	-0.1889	-0.003815	0.35156	0.030823	0.006714	-0.014038
9.361	-0.003052	-0.12405	-0.019226	-0.013428	-0.065308	0.24994	0.10346	-0.013275	0.08606	-0.064087	0.040283	0.003815	0.26489	0.072327	-0.049438	0.000305	0.003357	-0.32303	0.05188	0.27298	0.037994	-0.001221	-0.031433	-0.15595	0.006104	0.003662	-0.22278	-0.005341	0.28595	-0.031738	-0.001984	-0.014801
9.362	-0.012054	-0.099487	0.024872	0.001678	-0.012512	0.19211	0.11658	-0.004272	-0.019379	-0.024567	0.068817	-0.002594	-0.13718	0.067749	0.012817	0.006104	-0.03418	-0.32288	0.001221	0.38803	0.034485	-0.002747	0.10925	-0.16327	0.009308	0.002594	-0.24551	-0.003052	0.18646	-0.083313	0.002441	-0.009766
9.363	-0.007629	-0.058136	0.005188	0.005493	0.014191	0.10361	0.11643	0.00351	-0.010529	-0.012817	0.093536	0.003662	-0.18677	-0.048676	0.29602	-0.007782	-0.081177	-0.35736	-0.19272	0.23086	0.029755	0.017548	0.20798	-0.17654	-0.001221	0.002441	0.21103	-0.011444	0.031128	-0.055084	0.001678	-0.011597
9.364	-0.011902	-0.008545	-0.0737	0.014191	0.062866	0.089874	0.13748	0.004578	0.022888	-0.021362	0.074005	0.003204	-0.019531	-0.05661	0.41901	-0.003815	-0.10574	-0.383	-0.11429	0.098419	0.028839	0.02243	0.31647	-0.22659	-0.009155	-0.003357	0.31036	-0.008392	-0.036926	-0.042725	0.000458	-0.006866
9.365	-0.001831	0.018768	-0.19531	0.006866	0.02655	0.061188	0.15656	0.005951	0.025482	-0.00061	0.040283	0.005188	0.1326	-0.045013	0.18066	-0.002136	-0.095367	-0.33508	0.23132	-0.14435	0.033264	0.044556	0.40771	-0.18249	-0.019379	-0.022583	0.29373	-0.004425	-0.12161	-0.028534	-0.002289	-0.003357
9.366	-0.002899	0.035858	-0.049591	0.007324	0.009766	0.028687	0.17273	0.000305	-0.054321	0.004272	0.065155	0.001373	0.11276	0.10681	-0.19623	0.006104	-0.046387	-0.33432	0.47318	-0.26535	0.038452	0.036316	0.39337	-0.14328	-0.010681	-0.018463	0.24429	-0.007172	-0.066681	-0.046387	0.000458	-0.003357
9.367	-0.00946	0.078583	0.20615	-0.005951	-0.001373	0.095215	0.093994	0.007324	-0.1059	-0.004883	0.071106	0.006256	-0.29373	0.19028	-0.11124	0.00946	0.00412	-0.32318	0.3865	-0.35294	0.03418	0.024109	0.224	-0.2002	-0.013428	-0.014343	-0.36835	-0.004272	-0.6691	-0.088806	-0.00061	-0.003357
9.368	-0.020142	0.054169	0.11185	0.006409	-0.011444	0.22659	0.001831	0.011139	-0.11963	-0.030823	0.000916	0.007782	-0.26443	0.096588	-0.10544	-0.00412	0.032654	-0.2861	0.22522	-0.42618	0.019684	0.020142	0.15533	-0.18555	-0.009003	-0.005188	-0.97015	-0.002289	-0.52673	-0.066376	-0.000458	0.000916
9.369	-0.025024	0.056	0.030365	-0.007172	-0.075836	0.13565	-0.08316	0.014648	-0.058594	-0.012054	-0.021973	0.005798	0.15884	0.1944	-0.1532	-0.014954	0.031586	-0.24262	0.016022	-0.25207	0.008545	0.010834	0.11505	-0.16251	-0.002594	-0.002441	-0.36285	-0.006104	-0.018768	-0.001678	-0.00061	-0.009766
9.37	-0.021667	0.055084	0.057526	0.004425	-0.14069	0.070343	-0.019684	0.007935	-0.12497	0.079498	-0.025024	0.002136	0.56824	0.14725	-0.18555	-0.022278	0.013733	-0.28168	0.029144	-0.090637	-0.00946	0.006866	0.012665	-0.11673	0.020294	-0.010986	-0.045776	0.000305	0.086823	0.041504	0.000458	-0.00824
9.371	-0.020905	0.057526	0.024872	0.003815	-0.18936	-0.047302	0.025177	-0.010834	0.093079	0.10513	-0.045471	0.007782	0.36545	-0.015717	-0.084839	-0.005035	0	-0.25528	0.12756	-0.022888	0.026093	0.033722	-0.089874	-0.10193	0.033569	-0.028534	0.028687	-0.002136	-0.014343	0.04715	-0.000763	-0.013275
9.372	0.001831	0.0354	0.20264	-0.007172	-0.20111	-0.10468	0.097504	-0.010071	0.14862	0.1033	-0.024872	0.007629	0.18112	0.082855	0.018463	-0.011292	-0.003357	-0.23575	0.15701	0.058899	0.043182	0.036011	-0.19394	-0.067139	0.023499	-0.020599	-0.053711	-0.00824	0.013733	-0.001221	-0.000763	-0.011292
9.373	0.031891	0.024719	0.072632	0.005798	-0.048218	-0.045319	0.090485	-0.015717	0.082092	0.13733	0.008545	0.003662	-0.3862	0.20035	0.0383	0.002594	-0.017395	-0.23407	0.066528	0.15717	0.062408	0.028229	-0.26169	-0.075684	0.003357	-0.018921	-0.1413	-0.002747	0.006409	-0.029907	0.002747	-0.01709
9.374	0.030365	0.039063	-0.002899	0.023804	0.13794	-0.03891	0.07782	-0.00473	-0.003662	0.086517	0.002136	0.010376	-0.46448	0.11353	-0.037994	0.012054	-0.020447	-0.21835	0.094757	0.080872	0.026398	0.027313	-0.15823	-0.11139	0.016632	-0.026245	-0.16357	-0.002747	-0.012054	-0.046692	0.003052	-0.01709
9.375	0.0177	0.032501	0.14328	0.042725	0.11643	-0.048676	0.031433	0.00824	-0.022583	-0.10666	-0.050507	0.000153	-0.098877	-0.10529	-0.10513	0.006104	-0.02594	-0.24719	0.15457	-0.034027	-0.047455	0.050659	0.039368	-0.099792	-0.001068	-0.016785	-0.19699	-0.006256	-0.030518	-0.028687	0.001678	-0.019989
9.376	0.018463	0.028381	0.1326	0.018921	0.054474	-0.015564	-0.000305	0.018005	-0.01297	-0.078888	-0.069275	-0.000763	0.072174	0.022583	-0.16754	0.016937	-0.016937	-0.26703	0.11902	-0.16495	-0.063782	0.048218	0.1358	-0.12375	-0.002899	-0.009003	0.086365	-0.002899	-0.046234	-0.026703	-0.001831	-0.013428
9.377	0.013733	0.06897	0.099792	-0.010071	0.096893	0.044403	-0.008698	0.029755	0.066986	-0.041199	-0.049896	-0.006866	0.072174	0.1619	-0.15579	0.012665	0.016785	-0.25177	0.075836	-0.24887	-0.014954	0.03006	0.17136	-0.095062	-0.01297	-0.005798	0.36377	-0.005341	-0.027618	-0.002289	-0.004272	-0.016785
9.378	0.010529	0.07431	0.13168	-0.006714	0.13351	0.30045	0.028687	0.068512	0.11108	-0.092163	-0.006409	0	0.069885	0.14648	-0.034027	-0.002289	0.063934	-0.23315	0.26367	-0.26016	0.001068	0.028381	0.12878	-0.090485	0.010986	0.003967	0.54642	-0.003815	-0.013885	0.004883	-0.005341	-0.013733
9.379	0.002747	0.059204	0.067139	-0.004425	0.095978	0.75272	0.054474	-0.010986	0.11093	-0.086517	0.039368	0.001984	-0.15579	0.036163	0.24658	-0.014801	0.047607	-0.25864	0.18539	-0.032043	-0.014191	0.019073	0.13397	-0.14511	-0.001068	0	0.86472	-0.003662	-0.002747	0.029602	-0.001068	-0.015717
9.38	-0.009918	-0.007477	-0.063171	-0.004883	0.0383	0.93201	0.07019	-0.01709	0.10254	-0.023956	0.11612	0.008698	-0.13947	-0.23254	0.24445	-0.01236	0.07019	-0.23941	0.050354	0.14389	-0.012817	-0.023193	0.18112	-0.17136	0.005646	0.013428	0.72937	-0.002747	0.00824	0.058746	0.001221	-0.014801
9.381	-0.005341	-0.03067	-0.015564	0.019989	0	0.59204	0.066376	-0.050354	0.056458	0.007172	0.22964	0.00351	-0.052338	-0.46326	0.075226	-0.03006	0.084686	-0.17792	0.20309	0.22095	-0.013885	-0.02655	0.24612	-0.1619	-0.000153	0.028839	0.45761	-0.001984	0.043182	0.008087	-0.001831	-0.002136
9.382	-0.011597	0.004578	0.019531	0.004272	-0.005035	-0.096436	0.063019	-0.037537	0.11444	0.00885	0.11215	0.007324	0.096893	-0.40512	0.053253	-0.02182	0.10574	-0.17136	0.20371	0.28671	-0.002899	-0.044556	0.29678	-0.11047	0.01297	0.034027	-0.3006	-0.002289	0.10574	-0.000458	-0.00061	-0.001831
